<svg version="1.1" id="Layer_1" xmlns="http://www.w3.org/2000/svg" xmlns:xlink="http://www.w3.org/1999/xlink" x="0px" y="0px"
	 width="100%" viewBox="0 0 450 450" enable-background="new 0 0 450 450" xml:space="preserve">
<path fill="#000000" opacity="1.000000" stroke="none" 
	d="
M1.000001,196.000000 
	C1.000000,131.069580 1.000000,66.139153 1.000000,1.000000 
	C72.020760,1.000000 143.041718,1.000000 214.529877,1.400355 
	C209.732986,18.680908 204.449005,35.554939 199.210739,52.443142 
	C194.503281,67.619987 189.845993,82.812386 185.086548,98.380959 
	C183.339966,103.644608 181.559509,108.489693 180.025131,113.411499 
	C168.985001,148.824799 158.010162,184.258438 146.979584,219.674744 
	C143.581757,230.584335 140.075058,241.460022 136.465164,252.833466 
	C154.124146,252.833466 171.063141,252.833466 188.465637,252.906219 
	C200.286652,252.930466 211.644135,252.881958 223.465210,252.906189 
	C238.286926,252.930389 252.645065,252.881851 267.465881,252.905899 
	C270.093903,252.984863 272.260681,252.942352 274.424347,253.005936 
	C284.699738,253.307892 294.419678,251.261795 303.375854,246.098907 
	C316.071075,238.780609 322.536774,227.131577 325.827332,213.370712 
	C328.760864,201.102951 323.983276,192.483231 311.947479,188.459351 
	C299.407990,184.267044 286.413147,186.495682 273.610413,186.134766 
	C272.793152,186.111725 271.467987,187.606308 271.160858,188.629532 
	C268.938385,196.033463 266.917297,203.497833 264.489624,211.127197 
	C263.243805,214.574158 262.475250,217.881607 261.410187,221.090668 
	C259.103058,228.042053 257.726807,228.961380 250.481720,229.000641 
	C241.654968,229.048462 232.828308,229.110550 223.542496,229.091812 
	C219.131287,229.017151 215.179184,229.017151 210.681259,229.017151 
	C212.959457,221.488495 215.136414,214.477036 217.194183,207.430771 
	C218.587219,202.660660 219.812561,197.841568 221.447388,192.860992 
	C226.687851,176.192398 231.593826,159.707184 236.613846,142.838791 
	C243.379944,142.838791 250.190384,142.838791 257.464600,142.910889 
	C272.619629,142.933304 287.310883,142.883621 302.465698,142.906647 
	C318.349426,142.883377 333.794342,142.425354 349.133789,146.446991 
	C354.186554,148.852524 359.281128,150.531525 363.888336,153.088654 
	C371.381927,157.247864 376.467743,163.677841 379.372681,171.802811 
	C383.611450,183.658508 382.308411,195.532639 380.072784,207.567673 
	C376.191528,228.461395 369.167572,247.955887 356.016815,265.315430 
	C348.141968,274.321198 338.970886,281.227264 328.658051,287.192871 
	C327.160370,287.804565 326.088440,288.594727 324.888275,288.942810 
	C315.273071,291.731201 305.633667,294.436035 295.564514,297.091461 
	C280.418976,297.399475 265.710571,297.782440 250.538666,298.090729 
	C233.718048,298.066132 217.360947,298.116211 200.540253,298.091003 
	C184.384979,298.065857 168.693268,298.116028 152.538040,298.091858 
	C139.383820,298.066895 126.693138,298.116241 113.538788,298.091736 
	C108.933067,298.011658 104.785408,298.139679 100.650299,297.967102 
	C94.775940,297.721954 88.910805,297.255676 82.908112,296.568298 
	C78.034981,293.313171 77.202545,288.823425 78.136292,283.844849 
	C78.634895,281.186340 79.693703,278.634674 80.472916,276.026764 
	C83.358849,266.367920 86.233643,256.705780 89.444366,246.861130 
	C92.308151,238.179489 94.748795,229.653076 97.388954,221.188889 
	C106.229012,192.848251 115.177208,164.541321 124.014854,136.199921 
	C134.385986,102.940834 144.674255,69.655914 155.022079,36.389545 
	C157.696808,27.790848 160.460007,19.219669 163.328003,10.177290 
	C161.734207,10.177290 160.539978,9.892224 159.547821,10.219584 
	C141.547653,16.158638 124.076721,23.342281 108.046867,33.567810 
	C101.120895,37.985924 94.636467,43.096214 87.631195,48.030331 
	C74.452118,57.583271 63.235691,68.729004 53.046059,80.923943 
	C50.055756,84.502739 47.421654,88.379158 44.317322,92.318504 
	C35.092861,104.906250 27.217325,117.868286 20.955330,131.851379 
	C12.029731,151.782318 5.455583,172.324829 2.920416,194.084381 
	C2.838443,194.787964 1.664767,195.364334 1.000001,196.000000 
L61:z"/>
<path fill="#000000" opacity="1.000000" stroke="none" 
	d="
M199.000000,451.000000 
	C133.073532,451.000000 67.147072,451.000000 1.000000,451.000000 
	C1.000000,386.312592 1.000000,321.624969 1.349918,256.150726 
	C2.131190,256.205322 2.764370,257.001526 2.963372,257.894531 
	C5.598808,269.720703 7.532921,281.746124 10.899066,293.357391 
	C17.471785,316.029480 28.253422,336.776184 42.011395,356.365540 
	C53.555923,371.930420 65.959381,386.236664 81.090057,398.427063 
	C84.629150,401.471161 87.842003,404.498199 91.480270,406.873688 
	C99.523201,412.125153 107.780144,417.048828 116.091873,422.429016 
	C126.975449,427.988831 137.716949,433.225830 149.165939,438.807800 
	C151.010635,431.438507 152.561859,425.241547 154.448944,418.857056 
	C155.243118,416.620544 155.602173,414.543457 156.174713,412.526978 
	C164.444733,383.400665 172.705475,354.271484 181.157410,325.197937 
	C181.543976,323.868195 183.640182,322.282349 185.066681,322.146729 
	C189.680710,321.708008 194.353821,321.890778 199.467682,321.906006 
	C208.420044,321.985413 216.908890,321.998413 225.397751,321.997742 
	C228.633148,321.997467 230.771866,321.929260 229.252502,326.738098 
	C225.615036,338.250977 222.943497,350.064911 219.663666,361.695740 
	C211.500076,390.645233 203.214645,419.560394 195.189606,447.746735 
	C196.744324,449.074127 197.872162,450.037079 199.000000,451.000000 
L84:z"/>
<path fill="#000000" opacity="1.000000" stroke="none" 
	d="
M451.000000,253.000000 
	C451.000000,318.927032 451.000000,384.854034 451.000000,451.000000 
	C385.312592,451.000000 319.624969,451.000000 253.139847,450.694794 
	C253.895554,449.870941 255.448715,449.352295 257.419373,448.906250 
	C263.417053,447.980804 269.084991,447.321167 274.556183,445.902802 
	C282.128906,443.939545 289.553619,441.405304 297.435791,439.062866 
	C308.567169,434.378632 319.304504,429.747101 330.409485,425.059296 
	C339.865204,419.375305 348.953308,413.747589 358.361908,407.978943 
	C368.136536,399.599304 377.590637,391.360565 387.358154,382.987823 
	C399.065765,370.581268 409.785156,357.792908 418.366364,342.964996 
	C421.950562,336.882172 425.581207,331.127197 428.402191,324.999451 
	C438.550537,302.955292 446.198608,280.127655 449.072510,255.879883 
	C449.193604,254.858109 450.334290,253.957199 451.000000,253.000000 
L100:z"/>
<path fill="#000000" opacity="1.000000" stroke="none" 
	d="
M256.000000,1.000000 
	C320.927582,1.000000 385.855164,1.000000 451.000000,1.000000 
	C451.000000,66.687401 451.000000,132.375046 450.654968,198.859833 
	C449.876129,198.816269 449.178925,198.013443 449.051727,197.128647 
	C448.287872,191.815643 448.101471,186.381012 446.902924,181.175629 
	C440.843994,154.860977 432.157104,129.561798 416.902985,106.549347 
	C408.057526,92.219391 398.238037,79.099968 385.918579,67.576172 
	C381.215698,63.031647 376.843597,58.539825 372.008148,54.619511 
	C364.857758,48.822357 357.378174,43.431202 349.887756,37.549488 
	C345.007416,34.503628 340.425537,31.468349 335.517883,29.111477 
	C325.438293,24.270830 315.184265,19.793425 304.658813,15.000631 
	C300.900269,13.558581 297.570251,11.935704 294.053864,11.070111 
	C282.740265,8.285177 271.357941,5.779664 259.582275,3.091154 
	C258.108307,2.343947 257.054169,1.671974 256.000000,1.000000 
L117:z"/>
<path fill="#5AA2FF" opacity="1.000000" stroke="none" 
	d="
M41.858845,356.053802 
	C28.253422,336.776184 17.471785,316.029480 10.899066,293.357391 
	C7.532921,281.746124 5.598808,269.720703 2.963372,257.894531 
	C2.764370,257.001526 2.131190,256.205322 1.349918,255.682068 
	C1.000000,236.312439 1.000000,216.624878 1.000001,196.468658 
	C1.664767,195.364334 2.838443,194.787964 2.920416,194.084381 
	C5.455583,172.324829 12.029731,151.782318 20.955330,131.851379 
	C27.217325,117.868286 35.092861,104.906250 44.501991,92.718140 
	C45.659008,94.753593 46.869953,96.579811 46.900200,98.425369 
	C47.081158,109.466270 47.085491,120.512657 46.965004,131.555206 
	C46.830242,143.906097 46.304489,156.254929 46.308456,168.604538 
	C46.312534,181.287460 46.902504,193.969742 46.946270,206.653290 
	C46.975857,215.227127 46.279026,223.803497 46.309002,232.377319 
	C46.353935,245.226776 46.953300,258.075134 46.944729,270.923737 
	C46.935493,284.771210 46.312199,298.618256 46.301353,312.465759 
	C46.291550,324.981598 46.663467,337.500275 47.046181,350.012238 
	C47.164001,353.864014 46.737514,356.733582 41.858845,356.053802 
L137:z"/>
<path fill="#5CC0FF" opacity="1.000000" stroke="none" 
	d="
M257.001892,448.833649 
	C255.448715,449.352295 253.895554,449.870941 252.671188,450.694794 
	C235.312439,451.000000 217.624878,451.000000 199.468658,451.000000 
	C197.872162,450.037079 196.744324,449.074127 195.189606,447.746735 
	C203.214645,419.560394 211.500076,390.645233 219.663666,361.695740 
	C222.943497,350.064911 225.615036,338.250977 229.252502,326.738098 
	C230.771866,321.929260 228.633148,321.997467 225.397751,321.997742 
	C216.908890,321.998413 208.420044,321.985413 199.575195,321.581665 
	C200.807816,319.135529 203.532074,317.205688 203.764145,315.012177 
	C204.369370,309.291962 204.992996,303.259979 201.003845,298.166260 
	C217.360947,298.116211 233.718048,298.066132 250.650543,298.417389 
	C258.237762,300.745728 258.128448,306.018341 258.101013,311.954773 
	C257.909821,353.283966 258.029266,394.614563 257.956329,435.944489 
	C257.948730,440.241425 257.334595,444.537292 257.001892,448.833649 
L154:z"/>
<path fill="#5BBCFF" opacity="1.000000" stroke="none" 
	d="
M185.166565,97.997917 
	C189.845993,82.812386 194.503281,67.619987 199.210739,52.443142 
	C204.449005,35.554939 209.732986,18.680908 214.998535,1.400355 
	C216.714355,1.000000 218.428711,1.000000 220.644974,1.411401 
	C221.431244,4.452817 221.961349,7.082608 221.963745,9.712880 
	C222.012177,62.849705 222.059601,115.986732 221.928604,169.123276 
	C221.911179,176.194977 220.894165,183.262177 220.430450,190.337372 
	C220.372513,191.221008 220.871811,192.141144 221.112915,193.044373 
	C219.812561,197.841568 218.587219,202.660660 217.194183,207.430771 
	C215.136414,214.477036 212.959457,221.488495 210.681259,229.017151 
	C215.179184,229.017151 219.131287,229.017151 223.542099,229.527252 
	C223.667740,237.636047 223.334686,245.234756 223.001633,252.833450 
	C211.644135,252.881958 200.286652,252.930466 188.466187,252.483734 
	C188.335480,242.879135 188.894394,233.771255 188.954590,224.660095 
	C189.096298,203.213913 189.044144,181.766037 188.987000,160.319061 
	C188.934814,140.728073 188.834061,121.136360 188.510818,101.548981 
	C188.490997,100.347229 186.330856,99.180786 185.166565,97.997917 
L174:z"/>
<path fill="#5CC1FF" opacity="1.000000" stroke="none" 
	d="
M221.447388,192.860992 
	C220.871811,192.141144 220.372513,191.221008 220.430450,190.337372 
	C220.894165,183.262177 221.911179,176.194977 221.928604,169.123276 
	C222.059601,115.986732 222.012177,62.849705 221.963745,9.712880 
	C221.961349,7.082608 221.431244,4.452817 221.073441,1.411401 
	C232.354233,1.000000 243.708450,1.000000 255.531342,1.000000 
	C257.054169,1.671974 258.108307,2.343947 259.658630,3.474236 
	C260.712891,7.522802 261.656006,11.103240 261.747803,14.705374 
	C261.930359,21.868334 261.631073,29.043097 261.556000,36.213245 
	C261.489410,42.574066 261.393158,48.935577 261.426392,55.296173 
	C261.462189,62.142448 261.705109,68.987801 261.725220,75.833946 
	C261.744904,82.529350 261.551575,89.225128 261.535126,95.920952 
	C261.512695,105.050873 261.773224,114.186562 261.524567,123.309196 
	C261.340485,130.063705 263.583099,137.517288 257.000824,142.838791 
	C250.190384,142.838791 243.379944,142.838791 236.613846,142.838791 
	C231.593826,159.707184 226.687851,176.192398 221.447388,192.860992 
L193:z"/>
<path fill="#5DDEFF" opacity="1.000000" stroke="none" 
	d="
M417.041687,106.868362 
	C432.157104,129.561798 440.843994,154.860977 446.902924,181.175629 
	C448.101471,186.381012 448.287872,191.815643 449.051727,197.128647 
	C449.178925,198.013443 449.876129,198.816269 450.654968,199.328491 
	C451.000000,216.687561 451.000000,234.375122 451.000000,252.531342 
	C450.334290,253.957199 449.193604,254.858109 449.072510,255.879883 
	C446.198608,280.127655 438.550537,302.955292 428.402191,324.999451 
	C425.581207,331.127197 421.950562,336.882172 418.299683,342.582153 
	C418.074341,334.343109 418.258209,326.330414 418.402039,318.316986 
	C418.552704,309.921967 418.716644,301.526642 418.778839,293.130707 
	C418.838318,285.101562 418.775635,277.071472 418.764374,269.041809 
	C418.753052,260.965332 418.801666,252.888123 418.707275,244.812592 
	C418.622833,237.586639 418.209595,230.361603 418.250549,223.137909 
	C418.298126,214.746445 418.872620,206.356659 418.862854,197.966553 
	C418.854462,190.743591 418.105194,183.520538 418.125336,176.298752 
	C418.146881,168.576218 418.845276,160.857468 418.959717,153.132797 
	C419.115540,142.618027 419.025024,132.099045 418.969360,121.582245 
	C418.960663,119.942146 418.583557,118.303108 418.364655,116.665199 
	C417.928131,113.398987 417.483154,110.133911 417.041687,106.868362 
L215:z"/>
<path fill="#5AA8FF" opacity="1.000000" stroke="none" 
	d="
M42.011395,356.365540 
	C46.737514,356.733582 47.164001,353.864014 47.046181,350.012238 
	C46.663467,337.500275 46.291550,324.981598 46.301353,312.465759 
	C46.312199,298.618256 46.935493,284.771210 46.944729,270.923737 
	C46.953300,258.075134 46.353935,245.226776 46.309002,232.377319 
	C46.279026,223.803497 46.975857,215.227127 46.946270,206.653290 
	C46.902504,193.969742 46.312534,181.287460 46.308456,168.604538 
	C46.304489,156.254929 46.830242,143.906097 46.965004,131.555206 
	C47.085491,120.512657 47.081158,109.466270 46.900200,98.425369 
	C46.869953,96.579811 45.659008,94.753593 44.808968,92.518799 
	C47.421654,88.379158 50.055756,84.502739 53.046059,80.923943 
	C63.235691,68.729004 74.452118,57.583271 87.876144,48.316467 
	C89.294220,50.973072 90.885406,53.479973 90.891579,55.990772 
	C91.032341,113.229088 91.007874,170.467819 90.971184,227.706467 
	C90.969704,230.010742 90.543922,232.314560 90.319351,234.618942 
	C89.915703,238.760773 89.514717,242.902878 89.112625,247.044861 
	C86.233643,256.705780 83.358849,266.367920 80.472916,276.026764 
	C79.693703,278.634674 78.634895,281.186340 78.136292,283.844849 
	C77.202545,288.823425 78.034981,293.313171 82.918167,296.996826 
	C83.374199,300.031403 83.953476,302.321320 83.958382,304.612457 
	C84.020233,333.501495 84.067810,362.391205 83.867867,391.278961 
	C83.852051,393.564087 81.971008,395.836273 80.956810,398.114471 
	C65.959381,386.236664 53.555923,371.930420 42.011395,356.365540 
L241:z"/>
<path fill="#5DD5FF" opacity="1.000000" stroke="none" 
	d="
M350.038757,37.867172 
	C357.378174,43.431202 364.857758,48.822357 372.008148,54.619511 
	C376.843597,58.539825 381.215698,63.031647 385.923828,67.970367 
	C389.662140,78.385979 388.027985,88.448700 388.058105,98.404816 
	C388.083099,106.668144 388.175262,114.931549 388.286224,123.194267 
	C388.376740,129.936325 388.681244,136.678421 388.634125,143.418701 
	C388.572998,152.164688 388.094177,160.909058 388.103119,169.653824 
	C388.110199,176.561218 388.719940,183.466431 388.805756,190.375793 
	C388.879272,196.295380 388.549377,202.218933 388.469299,208.141693 
	C388.348724,217.059143 388.262329,225.977249 388.214386,234.895370 
	C388.174683,242.279343 388.200348,249.663773 388.217468,257.047943 
	C388.237793,265.805634 388.249146,274.563538 388.322784,283.320831 
	C388.379456,290.062592 388.651123,296.804535 388.601898,303.544739 
	C388.538025,312.292267 388.094482,321.038483 388.109192,329.784729 
	C388.120789,336.692078 388.936493,343.608124 388.754303,350.503387 
	C388.466858,361.383667 387.642120,372.249756 387.044769,383.121857 
	C377.590637,391.360565 368.136536,399.599304 358.368103,407.575195 
	C358.701508,404.590576 359.906036,401.870270 359.913574,399.146606 
	C360.032593,356.201233 359.981049,313.255402 360.035095,270.309784 
	C360.038757,267.404663 359.301208,265.420532 356.154175,265.003143 
	C369.167572,247.955887 376.191528,228.461395 380.072784,207.567673 
	C382.308411,195.532639 383.611450,183.658508 379.372681,171.802811 
	C376.467743,163.677841 371.381927,157.247864 363.888336,153.088654 
	C359.281128,150.531525 354.186554,148.852524 349.211609,146.059799 
	C349.741608,142.644943 350.904602,139.952103 350.917633,137.253708 
	C351.051758,109.424088 351.049408,81.593399 350.956604,53.763447 
	C350.938934,48.463726 350.359161,43.165886 350.038757,37.867172 
L271:z"/>
<path fill="#5BAFFF" opacity="1.000000" stroke="none" 
	d="
M89.444366,246.861130 
	C89.514717,242.902878 89.915703,238.760773 90.319351,234.618942 
	C90.543922,232.314560 90.969704,230.010742 90.971184,227.706467 
	C91.007874,170.467819 91.032341,113.229088 90.891579,55.990772 
	C90.885406,53.479973 89.294220,50.973072 88.196411,48.178215 
	C94.636467,43.096214 101.120895,37.985924 108.046867,33.567810 
	C124.076721,23.342281 141.547653,16.158638 159.547821,10.219584 
	C160.539978,9.892224 161.734207,10.177290 163.328003,10.177290 
	C160.460007,19.219669 157.696808,27.790848 155.022079,36.389545 
	C144.674255,69.655914 134.385986,102.940834 124.014854,136.199921 
	C115.177208,164.541321 106.229012,192.848251 97.388954,221.188889 
	C94.748795,229.653076 92.308151,238.179489 89.444366,246.861130 
L286:z"/>
<path fill="#5CC8FF" opacity="1.000000" stroke="none" 
	d="
M257.464600,142.910889 
	C263.583099,137.517288 261.340485,130.063705 261.524567,123.309196 
	C261.773224,114.186562 261.512695,105.050873 261.535126,95.920952 
	C261.551575,89.225128 261.744904,82.529350 261.725220,75.833946 
	C261.705109,68.987801 261.462189,62.142448 261.426392,55.296173 
	C261.393158,48.935577 261.489410,42.574066 261.556000,36.213245 
	C261.631073,29.043097 261.930359,21.868334 261.747803,14.705374 
	C261.656006,11.103240 260.712891,7.522802 260.078430,3.549470 
	C271.357941,5.779664 282.740265,8.285177 294.053864,11.070111 
	C297.570251,11.935704 300.900269,13.558581 304.678101,15.382465 
	C305.691467,23.765638 306.771301,31.594397 306.894135,39.438145 
	C307.085419,51.653179 306.460266,63.878700 306.482758,76.099228 
	C306.515900,94.106628 306.764008,112.114288 307.032104,130.120178 
	C307.106689,135.128998 307.353210,140.044800 302.002167,142.833923 
	C287.310883,142.883621 272.619629,142.933304 257.464600,142.910889 
L304:z"/>
<path fill="#5CC7FF" opacity="1.000000" stroke="none" 
	d="
M257.419373,448.906250 
	C257.334595,444.537292 257.948730,440.241425 257.956329,435.944489 
	C258.029266,394.614563 257.909821,353.283966 258.101013,311.954773 
	C258.128448,306.018341 258.237762,300.745728 251.114075,298.492065 
	C265.710571,297.782440 280.418976,297.399475 295.640015,297.441956 
	C296.953705,300.844482 298.186493,303.783386 298.453644,306.807617 
	C298.844025,311.226776 298.540497,315.707184 298.534241,320.161469 
	C298.525421,326.416931 298.564911,332.672913 298.498779,338.927765 
	C298.402771,348.009827 298.122040,357.091187 298.127472,366.172699 
	C298.131531,372.916534 298.637390,379.660889 298.608948,386.403687 
	C298.571381,395.314362 298.277283,404.225220 298.005890,413.133331 
	C297.741974,421.795807 297.367584,430.454956 297.041687,439.115570 
	C289.553619,441.405304 282.128906,443.939545 274.556183,445.902802 
	C269.084991,447.321167 263.417053,447.980804 257.419373,448.906250 
L321:z"/>
<path fill="#5CCEFF" opacity="1.000000" stroke="none" 
	d="
M302.465698,142.906647 
	C307.353210,140.044800 307.106689,135.128998 307.032104,130.120178 
	C306.764008,112.114288 306.515900,94.106628 306.482758,76.099228 
	C306.460266,63.878700 307.085419,51.653179 306.894135,39.438145 
	C306.771301,31.594397 305.691467,23.765638 305.021332,15.548330 
	C315.184265,19.793425 325.438293,24.270830 335.517883,29.111477 
	C340.425537,31.468349 345.007416,34.503628 349.887756,37.549492 
	C350.359161,43.165886 350.938934,48.463726 350.956604,53.763447 
	C351.049408,81.593399 351.051758,109.424088 350.917633,137.253708 
	C350.904602,139.952103 349.741608,142.644943 349.034546,145.727554 
	C333.794342,142.425354 318.349426,142.883377 302.465698,142.906647 
L335:z"/>
<path fill="#5BB2FF" opacity="1.000000" stroke="none" 
	d="
M154.113083,419.044617 
	C152.561859,425.241547 151.010635,431.438507 149.165939,438.807800 
	C137.716949,433.225830 126.975449,427.988831 116.362015,422.161194 
	C117.326691,419.450500 118.882858,417.333649 118.892410,415.209839 
	C119.045006,381.285675 118.963280,347.360474 119.035767,313.435791 
	C119.047997,307.713104 119.767677,301.914001 114.002457,298.165619 
	C126.693138,298.116241 139.383820,298.066895 152.611786,298.462677 
	C153.766052,302.127869 154.903534,305.345398 154.918762,308.568298 
	C155.057236,337.881989 155.026520,367.196655 154.963150,396.510864 
	C154.956009,399.812164 154.311890,403.107727 154.193924,406.414185 
	C154.043854,410.619934 154.129211,414.834076 154.113083,419.044617 
L349:z"/>
<path fill="#5CCCFF" opacity="1.000000" stroke="none" 
	d="
M297.435791,439.062866 
	C297.367584,430.454956 297.741974,421.795807 298.005890,413.133331 
	C298.277283,404.225220 298.571381,395.314362 298.608948,386.403687 
	C298.637390,379.660889 298.131531,372.916534 298.127472,366.172699 
	C298.122040,357.091187 298.402771,348.009827 298.498779,338.927765 
	C298.564911,332.672913 298.525421,326.416931 298.534241,320.161469 
	C298.540497,315.707184 298.844025,311.226776 298.453644,306.807617 
	C298.186493,303.783386 296.953705,300.844482 296.077148,297.516937 
	C305.633667,294.436035 315.273071,291.731201 324.888275,288.942810 
	C326.088440,288.594727 327.160370,287.804565 328.824554,287.506714 
	C330.217804,291.128601 331.752289,294.452850 331.802826,297.799500 
	C331.919495,305.521912 331.159332,313.252838 331.043243,320.984650 
	C330.887695,331.342651 330.990112,341.704773 331.020721,352.065033 
	C331.025146,353.553894 331.320648,355.040344 331.356171,356.530884 
	C331.532501,363.933075 331.826416,371.337433 331.773041,378.738831 
	C331.714844,386.804779 331.366211,394.869995 331.059906,402.932343 
	C330.778900,410.329010 330.385651,417.721344 330.041840,425.115601 
	C319.304504,429.747101 308.567169,434.378632 297.435791,439.062866 
L370:z"/>
<path fill="#5BB7FF" opacity="1.000000" stroke="none" 
	d="
M185.086533,98.380959 
	C186.330856,99.180786 188.490997,100.347229 188.510818,101.548981 
	C188.834061,121.136360 188.934814,140.728073 188.987000,160.319061 
	C189.044144,181.766037 189.096298,203.213913 188.954590,224.660095 
	C188.894394,233.771255 188.335480,242.879135 188.002686,252.410980 
	C171.063141,252.833466 154.124146,252.833466 136.465164,252.833466 
	C140.075058,241.460022 143.581757,230.584335 146.979584,219.674744 
	C158.010162,184.258438 168.985001,148.824799 180.025131,113.411499 
	C181.559509,108.489693 183.339966,103.644608 185.086533,98.380959 
L382:z"/>
<path fill="#5CD1FF" opacity="1.000000" stroke="none" 
	d="
M330.409485,425.059326 
	C330.385651,417.721344 330.778900,410.329010 331.059906,402.932343 
	C331.366211,394.869995 331.714844,386.804779 331.773041,378.738831 
	C331.826416,371.337433 331.532501,363.933075 331.356171,356.530884 
	C331.320648,355.040344 331.025146,353.553894 331.020721,352.065033 
	C330.990112,341.704773 330.887695,331.342651 331.043243,320.984650 
	C331.159332,313.252838 331.919495,305.521912 331.802826,297.799500 
	C331.752289,294.452850 330.217804,291.128601 329.190887,287.480347 
	C338.970886,281.227264 348.141968,274.321198 356.016815,265.315430 
	C359.301208,265.420532 360.038757,267.404663 360.035095,270.309784 
	C359.981049,313.255402 360.032593,356.201233 359.913574,399.146606 
	C359.906036,401.870270 358.701508,404.590576 358.047607,407.716125 
	C348.953308,413.747589 339.865204,419.375305 330.409485,425.059326 
L398:z"/>
<path fill="#5BADFF" opacity="1.000000" stroke="none" 
	d="
M113.538788,298.091736 
	C119.767677,301.914001 119.047997,307.713104 119.035767,313.435791 
	C118.963280,347.360474 119.045006,381.285675 118.892410,415.209839 
	C118.882858,417.333649 117.326691,419.450500 116.219940,421.838379 
	C107.780144,417.048828 99.523201,412.125153 91.480270,406.873688 
	C87.842003,404.498199 84.629150,401.471161 81.090057,398.427063 
	C81.971008,395.836273 83.852051,393.564087 83.867867,391.278961 
	C84.067810,362.391205 84.020233,333.501495 83.958382,304.612457 
	C83.953476,302.321320 83.374199,300.031403 83.051788,297.312408 
	C88.910805,297.255676 94.775940,297.721954 100.650299,297.967102 
	C104.785408,298.139679 108.933067,298.011658 113.538788,298.091736 
L412:z"/>
<path fill="#5CC9FF" opacity="1.000000" stroke="none" 
	d="
M264.832428,210.943069 
	C266.917297,203.497833 268.938385,196.033463 271.160858,188.629532 
	C271.467987,187.606308 272.793152,186.111725 273.610413,186.134766 
	C286.413147,186.495682 299.407990,184.267044 311.947479,188.459351 
	C323.983276,192.483231 328.760864,201.102951 325.827332,213.370712 
	C322.536774,227.131577 316.071075,238.780609 303.375854,246.098907 
	C294.419678,251.261795 284.699738,253.307892 274.424347,253.005936 
	C272.260681,252.942352 270.093903,252.984863 267.531250,252.557617 
	C267.604675,250.901413 268.456512,249.675110 268.486084,248.429306 
	C268.730713,238.113541 269.064240,227.787277 268.770081,217.481354 
	C268.706879,215.266266 266.208862,213.120667 264.832428,210.943069 
L426:z"/>
<path fill="#5BB7FF" opacity="1.000000" stroke="none" 
	d="
M154.448944,418.857056 
	C154.129211,414.834076 154.043854,410.619934 154.193924,406.414185 
	C154.311890,403.107727 154.956009,399.812164 154.963150,396.510864 
	C155.026520,367.196655 155.057236,337.881989 154.918762,308.568298 
	C154.903534,305.345398 153.766052,302.127869 153.075317,298.536987 
	C168.693268,298.116028 184.384979,298.065857 200.540253,298.091003 
	C204.992996,303.259979 204.369370,309.291962 203.764145,315.012177 
	C203.532074,317.205688 200.807816,319.135529 199.111694,321.509827 
	C194.353821,321.890778 189.680710,321.708008 185.066681,322.146729 
	C183.640182,322.282349 181.543976,323.868195 181.157410,325.197937 
	C172.705475,354.271484 164.444733,383.400665 156.174713,412.526978 
	C155.602173,414.543457 155.243118,416.620544 154.448944,418.857056 
L441:z"/>
<path fill="#5CC2FF" opacity="1.000000" stroke="none" 
	d="
M264.489624,211.127197 
	C266.208862,213.120667 268.706879,215.266266 268.770081,217.481354 
	C269.064240,227.787277 268.730713,238.113541 268.486084,248.429306 
	C268.456512,249.675110 267.604675,250.901413 267.068604,252.485046 
	C252.645065,252.881851 238.286926,252.930389 223.465210,252.906189 
	C223.334686,245.234756 223.667740,237.636047 224.001205,229.601913 
	C232.828308,229.110550 241.654968,229.048462 250.481720,229.000641 
	C257.726807,228.961380 259.103058,228.042053 261.410187,221.090668 
	C262.475250,217.881607 263.243805,214.574158 264.489624,211.127197 
L453:z"/>
<path fill="#5DD9FF" opacity="1.000000" stroke="none" 
	d="
M387.358154,382.987823 
	C387.642120,372.249756 388.466858,361.383667 388.754303,350.503387 
	C388.936493,343.608124 388.120789,336.692078 388.109192,329.784729 
	C388.094482,321.038483 388.538025,312.292267 388.601898,303.544739 
	C388.651123,296.804535 388.379456,290.062592 388.322784,283.320831 
	C388.249146,274.563538 388.237793,265.805634 388.217468,257.047943 
	C388.200348,249.663773 388.174683,242.279343 388.214386,234.895370 
	C388.262329,225.977249 388.348724,217.059143 388.469299,208.141693 
	C388.549377,202.218933 388.879272,196.295380 388.805756,190.375793 
	C388.719940,183.466431 388.110199,176.561218 388.103119,169.653824 
	C388.094177,160.909058 388.572998,152.164688 388.634125,143.418701 
	C388.681244,136.678421 388.376740,129.936325 388.286224,123.194267 
	C388.175262,114.931549 388.083099,106.668144 388.058105,98.404816 
	C388.027985,88.448700 389.662140,78.385979 386.047363,68.278702 
	C398.238037,79.099968 408.057526,92.219391 416.902985,106.549347 
	C417.483154,110.133911 417.928131,113.398987 418.364655,116.665199 
	C418.583557,118.303108 418.960663,119.942146 418.969360,121.582245 
	C419.025024,132.099045 419.115540,142.618027 418.959717,153.132797 
	C418.845276,160.857468 418.146881,168.576218 418.125336,176.298752 
	C418.105194,183.520538 418.854462,190.743591 418.862854,197.966553 
	C418.872620,206.356659 418.298126,214.746445 418.250549,223.137909 
	C418.209595,230.361603 418.622833,237.586639 418.707275,244.812592 
	C418.801666,252.888123 418.753052,260.965332 418.764374,269.041809 
	C418.775635,277.071472 418.838318,285.101562 418.778839,293.130707 
	C418.716644,301.526642 418.552704,309.921967 418.402039,318.316986 
	C418.258209,326.330414 418.074341,334.343109 417.974762,342.739014 
	C409.785156,357.792908 399.065765,370.581268 387.358154,382.987823 
L483:z"/>
</svg>
