<svg version="1.1" id="Layer_1" xmlns="http://www.w3.org/2000/svg" xmlns:xlink="http://www.w3.org/1999/xlink" x="0px" y="0px"
	 width="100%" viewBox="0 0 750 201" enable-background="new 0 0 750 201" xml:space="preserve">
<path fill="#000000" opacity="1.000000" stroke="none" 
	d="
M119.000000,0.999999 
	C329.612274,1.000000 540.224548,1.000000 750.918396,1.000000 
	C750.918396,67.928215 750.918396,134.856567 750.918396,201.892456 
	C501.000031,201.892456 251.000015,201.892456 1.000000,201.892456 
	C1.000000,174.915924 1.000000,147.922974 1.316610,120.142006 
	C2.087918,120.168068 2.763096,120.931236 2.964592,121.803780 
	C6.599583,137.544647 13.251425,151.778687 24.022860,164.355103 
	C29.091888,169.149979 34.026562,173.635101 39.095123,178.433838 
	C43.116684,181.181076 47.004349,183.614685 51.053329,186.369186 
	C52.745918,187.570984 54.224407,188.563843 55.817009,189.314682 
	C66.411102,194.309235 66.084213,194.203873 69.090691,182.833572 
	C72.727753,169.078430 77.004372,155.492371 81.467415,141.904510 
	C88.239288,141.975876 94.547958,141.975876 101.132416,141.975876 
	C95.974716,160.272247 91.294029,177.161682 86.412308,193.992783 
	C85.195435,198.188293 87.410011,198.950226 90.587379,198.969650 
	C97.056702,199.009216 103.526955,198.897095 110.398102,198.782288 
	C117.213364,197.183105 123.627342,195.649124 130.423615,194.056458 
	C137.208389,190.943024 143.610855,187.888260 150.276428,184.872345 
	C150.728470,184.623917 150.917389,184.336609 151.070648,184.038116 
	C151.034988,184.026917 151.058105,184.097977 151.418198,184.056870 
	C155.887619,180.693832 159.996948,177.371918 164.457031,174.032501 
	C168.219223,170.381836 171.630661,166.748703 175.360611,162.976944 
	C180.341965,155.146576 185.497253,147.704163 189.548386,139.702698 
	C195.162537,128.614075 197.259384,116.469116 197.993057,104.119240 
	C198.917252,88.562012 195.782272,73.565262 189.571136,59.531342 
	C185.984146,51.426598 179.965759,44.397945 175.027100,36.535210 
	C168.006668,29.841087 161.000839,23.496729 153.668579,17.003796 
	C145.575272,13.198051 137.808395,9.540884 129.856354,5.544827 
	C126.559891,4.463242 123.425262,3.800673 120.357666,2.907786 
	C119.769821,2.736680 119.445763,1.659283 119.000000,0.999999 
L35:z"/>
<path fill="#000000" opacity="1.000000" stroke="none" 
	d="
M1.000001,80.000000 
	C1.000000,53.733810 1.000000,27.467621 1.000000,1.000000 
	C31.687267,1.000000 62.374973,1.000000 93.531128,1.400607 
	C92.317574,7.830682 90.635590,13.860148 88.613617,20.071335 
	C78.852966,50.662754 69.432304,81.072456 59.902863,111.833282 
	C70.169342,111.833282 80.085953,111.833282 90.466064,111.905960 
	C100.286819,111.930870 109.644089,111.883102 119.439743,111.907043 
	C128.621689,112.358017 135.799622,109.437836 140.629776,101.870674 
	C145.985168,93.480682 143.195221,84.017838 134.501923,82.295135 
	C130.023499,81.407669 125.236061,81.962852 120.596840,82.119682 
	C119.834068,82.145462 118.730911,83.358475 118.447388,84.236641 
	C117.521614,87.104004 116.902168,90.070267 116.084183,93.379684 
	C115.025398,99.962944 111.405235,101.938011 105.333710,101.099052 
	C101.442513,100.561378 97.416656,100.998245 93.193214,100.998245 
	C96.866325,88.513626 100.454865,76.316452 104.506729,64.070023 
	C111.984924,63.959045 118.999802,63.897327 126.255066,63.900501 
	C126.495445,63.965393 126.977173,63.839249 127.311882,63.912663 
	C128.098068,63.936222 128.549545,63.886364 129.464569,63.908913 
	C137.602356,64.356590 145.276627,64.731873 153.119537,65.433929 
	C162.484665,68.240479 166.798920,74.005394 167.054108,83.253311 
	C167.316025,92.745560 163.942856,101.291443 160.564423,110.094116 
	C156.480972,114.782990 152.716736,119.336830 148.585190,123.935234 
	C142.146088,126.375427 136.074295,128.771057 129.553040,131.091522 
	C124.771584,131.323761 120.439568,131.631180 115.890152,131.554535 
	C90.433327,131.164398 65.193901,131.158325 39.570763,131.078064 
	C35.066490,130.630112 34.474670,127.845528 35.199966,124.628670 
	C35.834076,121.816238 37.088661,119.150154 37.906109,116.371452 
	C40.680496,106.940659 43.382622,97.488609 46.444344,87.861008 
	C55.200539,60.289680 63.624733,32.902016 72.343346,4.557193 
	C60.561386,7.290067 50.965244,12.572765 41.558060,19.090832 
	C35.482792,24.782700 29.717094,30.337299 23.633469,36.030502 
	C13.186137,48.522480 6.177013,62.381863 2.929738,78.093872 
	C2.777450,78.830719 1.665186,79.369164 1.000001,80.000000 
L71:z"/>
<path fill="#5AA4FF" opacity="1.000000" stroke="none" 
	d="
M1.000001,80.468658 
	C1.665186,79.369164 2.777450,78.830719 2.929738,78.093872 
	C6.177013,62.381863 13.186137,48.522480 23.847160,36.299515 
	C25.029602,38.164761 26.171329,39.880100 26.241138,41.638008 
	C26.469828,47.396725 26.219776,53.172436 26.318014,58.938816 
	C26.469879,67.852783 26.964365,76.765083 26.937254,85.676941 
	C26.899662,98.033875 26.333418,110.389656 26.327747,122.746086 
	C26.322229,134.768829 26.865786,146.792206 26.827126,158.814194 
	C26.821510,160.561035 24.915262,162.301773 23.888504,164.045334 
	C13.251425,151.778687 6.599583,137.544647 2.964592,121.803780 
	C2.763096,120.931236 2.087918,120.168068 1.316610,119.676994 
	C1.000000,106.979103 1.000000,93.958214 1.000001,80.468658 
L86:z"/>
<path fill="#5CBFFF" opacity="1.000000" stroke="none" 
	d="
M119.001350,111.835327 
	C109.644089,111.883102 100.286819,111.930870 90.491287,111.496613 
	C90.146812,105.250137 90.290314,99.485985 90.323402,93.721207 
	C90.381134,83.661064 90.324341,73.600166 90.405746,63.540306 
	C90.459023,56.955643 90.879158,50.368462 90.758865,43.789288 
	C90.612778,35.799595 92.199120,27.651625 88.953606,19.889616 
	C90.635590,13.860148 92.317574,7.830682 93.999786,1.400607 
	C98.689255,1.000000 103.378510,1.000000 108.539398,1.427224 
	C109.340683,6.976372 109.897896,12.095767 109.954857,17.220722 
	C110.093491,29.693998 109.798416,42.174740 110.100739,54.642231 
	C110.219139,59.525017 109.916557,63.405190 104.043404,64.119286 
	C100.454865,76.316452 96.866325,88.513626 93.193214,100.998245 
	C97.416656,100.998245 101.442513,100.561378 105.333710,101.099052 
	C111.405235,101.938011 115.025398,99.962944 116.450714,93.475632 
	C117.597679,94.848503 118.795135,96.475540 118.900978,98.170738 
	C119.184418,102.709991 118.999939,107.278465 119.001350,111.835327 
L105:z"/>
<path fill="#5CC6FF" opacity="1.000000" stroke="none" 
	d="
M104.506729,64.070023 
	C109.916557,63.405190 110.219139,59.525017 110.100739,54.642231 
	C109.798416,42.174740 110.093491,29.693998 109.954857,17.220722 
	C109.897896,12.095767 109.340683,6.976372 109.005508,1.427224 
	C112.030594,1.000000 115.061188,1.000000 118.545891,0.999999 
	C119.445763,1.659283 119.769821,2.736680 120.357666,2.907786 
	C123.425262,3.800673 126.559891,4.463242 129.851593,5.979296 
	C130.354645,11.348063 130.892929,15.940510 130.956070,20.539480 
	C131.096756,30.787180 131.188675,41.043297 130.908737,51.285275 
	C130.793991,55.483265 129.667358,59.653595 129.001022,63.836510 
	C128.549545,63.886364 128.098068,63.936222 127.207710,63.809792 
	C126.475548,63.497276 126.224159,63.564644 126.014679,63.835609 
	C118.999802,63.897327 111.984924,63.959045 104.506729,64.070023 
L121:z"/>
<path fill="#5BAAFF" opacity="1.000000" stroke="none" 
	d="
M24.022861,164.355103 
	C24.915262,162.301773 26.821510,160.561035 26.827126,158.814194 
	C26.865786,146.792206 26.322229,134.768829 26.327747,122.746086 
	C26.333418,110.389656 26.899662,98.033875 26.937254,85.676941 
	C26.964365,76.765083 26.469879,67.852783 26.318014,58.938816 
	C26.219776,53.172436 26.469828,47.396725 26.241138,41.638008 
	C26.171329,39.880100 25.029602,38.164761 24.165091,36.160912 
	C29.717094,30.337299 35.482792,24.782700 41.917450,19.163956 
	C43.544254,21.113710 45.070488,23.058592 45.325386,25.157841 
	C45.698429,28.230158 45.003967,31.415001 45.041607,34.548557 
	C45.130299,41.932793 45.541580,49.315315 45.529575,56.698051 
	C45.514053,66.248093 45.183670,75.797356 45.084866,85.347961 
	C45.075607,86.243225 45.753498,87.145599 46.112347,88.044678 
	C43.382622,97.488609 40.680496,106.940659 37.906109,116.371452 
	C35.834076,121.816238 34.474670,127.845528 39.578934,131.293533 
	C39.970825,131.583160 39.995316,132.013733 39.996498,132.481537 
	C39.652195,148.006287 39.306713,163.063248 38.961231,178.120209 
	C34.026562,173.635101 29.091888,169.149979 24.022861,164.355103 
L143:z"/>
<path fill="#5DD6FF" opacity="1.000000" stroke="none" 
	d="
M160.883636,109.959084 
	C163.942856,101.291443 167.316025,92.745560 167.054108,83.253311 
	C166.798920,74.005394 162.484665,68.240479 153.288422,65.044174 
	C153.525742,62.370789 153.959961,60.414764 153.968231,58.456944 
	C154.026306,44.688961 153.996643,30.920607 153.995010,17.152372 
	C161.000839,23.496729 168.006668,29.841087 175.017120,37.011093 
	C175.028519,79.596344 175.035294,121.355949 175.042084,163.115555 
	C171.630661,166.748703 168.219223,170.381836 164.191681,173.706848 
	C163.383698,171.435791 163.030350,169.473282 163.025314,167.509872 
	C162.981415,150.386673 163.071365,133.262634 162.906479,116.140923 
	C162.886581,114.074013 161.589020,112.019402 160.883636,109.959084 
L157:z"/>
<path fill="#5DDBFF" opacity="1.000000" stroke="none" 
	d="
M175.360611,162.976944 
	C175.035294,121.355949 175.028519,79.596344 175.031708,37.360855 
	C179.965759,44.397945 185.984146,51.426598 189.571136,59.531342 
	C195.782272,73.565262 198.917252,88.562012 197.993057,104.119240 
	C197.259384,116.469116 195.162537,128.614075 189.548386,139.702698 
	C185.497253,147.704163 180.341965,155.146576 175.360611,162.976944 
L166:z"/>
<path fill="#5CC6FF" opacity="1.000000" stroke="none" 
	d="
M116.107544,131.938599 
	C120.439568,131.631180 124.771584,131.323761 129.635391,131.490692 
	C130.444778,134.258087 130.952301,136.550049 130.962860,138.844284 
	C131.034088,154.309494 131.049484,169.775467 130.956711,185.240448 
	C130.938934,188.200409 130.360870,191.156998 130.041321,194.115143 
	C123.627342,195.649124 117.213364,197.183105 110.398849,198.323334 
	C109.997520,175.967606 109.996735,154.005646 110.432602,132.028687 
	C112.615356,131.988663 114.361450,131.963623 116.107544,131.938599 
L177:z"/>
<path fill="#5BB3FF" opacity="1.000000" stroke="none" 
	d="
M81.004211,141.833145 
	C77.004372,155.492371 72.727753,169.078430 69.090691,182.833572 
	C66.084213,194.203873 66.411102,194.309235 55.817009,189.314682 
	C54.224407,188.563843 52.745918,187.570984 51.386215,186.148865 
	C52.038498,183.586960 52.921619,181.569138 52.936069,179.545120 
	C53.049046,163.719437 52.995255,147.892563 53.461845,132.043060 
	C62.950165,132.031143 71.969574,132.042236 80.991753,132.499420 
	C80.997757,135.908051 81.000984,138.870605 81.004211,141.833145 
L188:z"/>
<path fill="#5CBFFF" opacity="1.000000" stroke="none" 
	d="
M81.467415,141.904510 
	C81.000984,138.870605 80.997757,135.908051 81.461296,132.479843 
	C91.284027,132.024002 100.639984,132.033844 109.995949,132.043671 
	C109.996735,154.005646 109.997520,175.967606 109.997559,198.388519 
	C103.526955,198.897095 97.056702,199.009216 90.587379,198.969650 
	C87.410011,198.950226 85.195435,198.188293 86.412308,193.992783 
	C91.294029,177.161682 95.974716,160.272247 101.132416,141.975876 
	C94.547958,141.975876 88.239288,141.975876 81.467415,141.904510 
L199:z"/>
<path fill="#5CCDFF" opacity="1.000000" stroke="none" 
	d="
M130.423615,194.056458 
	C130.360870,191.156998 130.938934,188.200409 130.956711,185.240448 
	C131.049484,169.775467 131.034088,154.309494 130.962860,138.844284 
	C130.952301,136.550049 130.444778,134.258087 130.084839,131.565887 
	C136.074295,128.771057 142.146088,126.375427 148.778107,124.277481 
	C149.892212,126.936256 150.905609,129.293259 150.926590,131.659058 
	C151.081543,149.137711 151.038727,166.618118 151.058105,184.097977 
	C151.058105,184.097977 151.034988,184.026917 150.864334,184.133240 
	C150.425858,184.390549 150.199066,184.588516 150.013306,184.833481 
	C143.610855,187.888260 137.208389,190.943024 130.423615,194.056458 
L212:z"/>
<path fill="#5CCDFF" opacity="1.000000" stroke="none" 
	d="
M153.668579,17.003796 
	C153.996643,30.920607 154.026306,44.688961 153.968231,58.456944 
	C153.959961,60.414764 153.525742,62.370789 153.119781,64.717392 
	C145.276627,64.731873 137.602356,64.356590 129.464569,63.908913 
	C129.667358,59.653595 130.793991,55.483265 130.908737,51.285275 
	C131.188675,41.043297 131.096756,30.787180 130.956070,20.539480 
	C130.892929,15.940510 130.354645,11.348063 130.036743,6.318185 
	C137.808395,9.540884 145.575272,13.198051 153.668579,17.003796 
L223:z"/>
<path fill="#5DD3FF" opacity="1.000000" stroke="none" 
	d="
M151.418198,184.056870 
	C151.038727,166.618118 151.081543,149.137711 150.926590,131.659058 
	C150.905609,129.293259 149.892212,126.936256 149.145416,124.232925 
	C152.716736,119.336830 156.480972,114.782990 160.564423,110.094116 
	C161.589020,112.019402 162.886581,114.074013 162.906479,116.140923 
	C163.071365,133.262634 162.981415,150.386673 163.025314,167.509872 
	C163.030350,169.473282 163.383698,171.435791 163.840912,173.724365 
	C159.996948,177.371918 155.887619,180.693832 151.418198,184.056870 
L234:z"/>
<path fill="#5BACFF" opacity="1.000000" stroke="none" 
	d="
M52.992931,132.066055 
	C52.995255,147.892563 53.049046,163.719437 52.936069,179.545120 
	C52.921619,181.569138 52.038498,183.586960 51.224903,185.827972 
	C47.004349,183.614685 43.116684,181.181076 39.095123,178.433838 
	C39.306713,163.063248 39.652195,148.006287 40.460117,132.475983 
	C44.946014,132.023773 48.969475,132.044907 52.992931,132.066055 
L243:z"/>
<path fill="#5DD3FF" opacity="1.000000" stroke="none" 
	d="
M150.276428,184.872345 
	C150.199066,184.588516 150.425858,184.390549 150.899994,184.144440 
	C150.917389,184.336609 150.728470,184.623917 150.276428,184.872345 
L249:z"/>
<path fill="#5BB9FF" opacity="1.000000" stroke="none" 
	d="
M88.613617,20.071335 
	C92.199120,27.651625 90.612778,35.799595 90.758865,43.789288 
	C90.879158,50.368462 90.459023,56.955643 90.405746,63.540306 
	C90.324341,73.600166 90.381134,83.661064 90.323402,93.721207 
	C90.290314,99.485985 90.146812,105.250137 90.027794,111.423927 
	C80.085953,111.833282 70.169342,111.833282 59.902863,111.833282 
	C69.432304,81.072456 78.852966,50.662754 88.613617,20.071335 
L259:z"/>
<path fill="#5BB0FF" opacity="1.000000" stroke="none" 
	d="
M46.444344,87.861008 
	C45.753498,87.145599 45.075607,86.243225 45.084866,85.347961 
	C45.183670,75.797356 45.514053,66.248093 45.529575,56.698051 
	C45.541580,49.315315 45.130299,41.932793 45.041607,34.548557 
	C45.003967,31.415001 45.698429,28.230158 45.325386,25.157841 
	C45.070488,23.058592 43.544254,21.113710 42.227028,19.026691 
	C50.965244,12.572765 60.561386,7.290067 72.343346,4.557193 
	C63.624733,32.902016 55.200539,60.289680 46.444344,87.861008 
L270:z"/>
<path fill="#5CC9FF" opacity="1.000000" stroke="none" 
	d="
M119.439743,111.907043 
	C118.999939,107.278465 119.184418,102.709991 118.900978,98.170738 
	C118.795135,96.475540 117.597679,94.848503 116.531425,93.094437 
	C116.902168,90.070267 117.521614,87.104004 118.447388,84.236641 
	C118.730911,83.358475 119.834068,82.145462 120.596840,82.119682 
	C125.236061,81.962852 130.023499,81.407669 134.501923,82.295135 
	C143.195221,84.017838 145.985168,93.480682 140.629776,101.870674 
	C135.799622,109.437836 128.621689,112.358017 119.439743,111.907043 
L281:z"/>
<path fill="#80D6FF" opacity="1.000000" stroke="none" 
	d="
M53.461845,132.043060 
	C48.969475,132.044907 44.946014,132.023773 40.458939,132.008179 
	C39.995316,132.013733 39.970825,131.583160 39.962654,131.367706 
	C65.193901,131.158325 90.433327,131.164398 115.890152,131.554535 
	C114.361450,131.963623 112.615356,131.988663 110.432602,132.028687 
	C100.639984,132.033844 91.284027,132.024002 81.458519,132.033752 
	C71.969574,132.042236 62.950165,132.031143 53.461845,132.043060 
L291:z"/>
<path fill="#5CCDFF" opacity="1.000000" stroke="none" 
	d="
M126.255066,63.900505 
	C126.224159,63.564644 126.475548,63.497276 126.873001,63.736378 
	C126.977173,63.839249 126.495445,63.965393 126.255066,63.900505 
L297:z"/>
</svg>
